<svg width="60" height="60" viewBox="0 0 60 60" fill="none" xmlns="http://www.w3.org/2000/svg"><rect width="60" height="60" rx="30" fill="#BEEE0F"></rect><path d="M17.5124 37.1935L17.5752 38.301C17.6444 39.5004 18.159 40.6328 19.0211 41.4825C19.8831 42.3321 21.0323 42.8398 22.2497 42.9087C23.4645 42.9773 24.6697 43.0306 25.8654 43.0683M33.7922 16.4526C35.0688 16.4884 36.3447 16.5433 37.6196 16.6174C40.1399 16.7643 42.1425 18.7397 42.2941 21.2225C42.3447 22.0484 42.3856 22.87 42.417 23.6873M21.319 23.4864C25.1621 23.4864 27.6405 26.4612 27.6405 30.3786H15C15 26.4612 17.4784 23.4864 21.319 23.4864ZM21.319 23.4864C24.0771 23.4864 25.6275 21.9591 25.6275 19.2445C25.6275 16.5299 24.0771 15 21.319 15C18.5608 15 17.0131 16.5273 17.0131 19.2445C17.0131 21.9617 18.5634 23.4864 21.319 23.4864ZM38.6784 38.1078C42.5216 38.1078 45 41.08 45 45H32.3569C32.3569 41.08 34.8379 38.1078 38.6784 38.1078ZM38.6784 38.1078C41.434 38.1078 42.9869 36.5805 42.9869 33.8659C42.9869 31.1513 41.434 29.6214 38.6784 29.6214C35.9203 29.6214 34.3699 31.1487 34.3699 33.8659C34.3699 36.5831 35.9203 38.1078 38.6784 38.1078Z" stroke="white" stroke-width="2" stroke-linecap="round" stroke-linejoin="round"></path></svg>